<?xml version="1.0" encoding="UTF-8" standalone="no"?>
<!-- Created with Inkscape (http://www.inkscape.org/) -->
<svg
   xmlns:dc="http://purl.org/dc/elements/1.1/"
   xmlns:cc="http://creativecommons.org/ns#"
   xmlns:rdf="http://www.w3.org/1999/02/22-rdf-syntax-ns#"
   xmlns:svg="http://www.w3.org/2000/svg"
   xmlns="http://www.w3.org/2000/svg"
   xmlns:xlink="http://www.w3.org/1999/xlink"
   xmlns:sodipodi="http://sodipodi.sourceforge.net/DTD/sodipodi-0.dtd"
   xmlns:inkscape="http://www.inkscape.org/namespaces/inkscape"
   width="48px"
   height="48px"
   id="svg7301"
   sodipodi:version="0.32"
   inkscape:version="0.46"
   sodipodi:docname="movie-alert-2.svg"
   inkscape:output_extension="org.inkscape.output.svg.inkscape">
  <defs
     id="defs7303">
    <inkscape:perspective
       sodipodi:type="inkscape:persp3d"
       inkscape:vp_x="0 : 24 : 1"
       inkscape:vp_y="0 : 1000 : 0"
       inkscape:vp_z="48 : 24 : 1"
       inkscape:persp3d-origin="24 : 16 : 1"
       id="perspective143" />
    <linearGradient
       id="linearGradient3171">
      <stop
         style="stop-color:#ffffff;stop-opacity:1;"
         offset="0"
         id="stop3173" />
      <stop
         style="stop-color:#ffffff;stop-opacity:0;"
         offset="1"
         id="stop3175" />
    </linearGradient>
    <linearGradient
       id="linearGradient5578">
      <stop
         style="stop-color:#a7cc5c;stop-opacity:1;"
         offset="0"
         id="stop5580" />
      <stop
         style="stop-color:#789e2d;stop-opacity:1;"
         offset="1"
         id="stop5582" />
    </linearGradient>
    <linearGradient
       id="linearGradient7037">
      <stop
         id="stop7039"
         offset="0"
         style="stop-color:#000000;stop-opacity:0.35294119" />
      <stop
         id="stop7041"
         offset="1"
         style="stop-color:#ffffff;stop-opacity:1" />
    </linearGradient>
    <linearGradient
       id="linearGradient3968">
      <stop
         style="stop-color:#eeeeec;stop-opacity:1"
         offset="0"
         id="stop3970" />
      <stop
         style="stop-color:#9d9e9a;stop-opacity:1"
         offset="1"
         id="stop3972" />
    </linearGradient>
    <linearGradient
       id="linearGradient3522">
      <stop
         style="stop-color:#729fcf;stop-opacity:1"
         offset="0"
         id="stop3524" />
      <stop
         style="stop-color:#3465a4;stop-opacity:1"
         offset="1"
         id="stop3526" />
    </linearGradient>
    <linearGradient
       inkscape:collect="always"
       xlink:href="#linearGradient3522"
       id="linearGradient3799"
       gradientUnits="userSpaceOnUse"
       gradientTransform="matrix(1.6477828,0,0,1.5563174,-2.2661648,3.0165392)"
       x1="12.872127"
       y1="5.0561161"
       x2="12.872127"
       y2="18.911581" />
    <radialGradient
       inkscape:collect="always"
       xlink:href="#linearGradient259"
       id="radialGradient8098"
       gradientUnits="userSpaceOnUse"
       gradientTransform="matrix(0.7644541,0,0,0.8390554,-0.5151427,1.5607992)"
       cx="33.966679"
       cy="35.736916"
       fx="33.966679"
       fy="35.736916"
       r="86.70845" />
    <linearGradient
       id="linearGradient259">
      <stop
         id="stop260"
         offset="0"
         style="stop-color:#828282;stop-opacity:1;" />
      <stop
         id="stop261"
         offset="1"
         style="stop-color:#434343;stop-opacity:1;" />
    </linearGradient>
    <radialGradient
       inkscape:collect="always"
       xlink:href="#linearGradient259"
       id="radialGradient3805"
       gradientUnits="userSpaceOnUse"
       gradientTransform="matrix(0.7570208,0,0,0.8396187,-1.6831619,1.5588032)"
       cx="33.966679"
       cy="35.736916"
       fx="33.966679"
       fy="35.736916"
       r="86.70845" />
    <radialGradient
       inkscape:collect="always"
       xlink:href="#linearGradient5060"
       id="radialGradient3768"
       gradientUnits="userSpaceOnUse"
       gradientTransform="matrix(4.7723729e-2,0,0,2.3250043e-2,0.760955,25.48098)"
       cx="605.71429"
       cy="486.64789"
       fx="605.71429"
       fy="486.64789"
       r="117.14286" />
    <linearGradient
       id="linearGradient5060"
       inkscape:collect="always">
      <stop
         id="stop5062"
         offset="0"
         style="stop-color:black;stop-opacity:1;" />
      <stop
         id="stop5064"
         offset="1"
         style="stop-color:black;stop-opacity:0;" />
    </linearGradient>
    <radialGradient
       inkscape:collect="always"
       xlink:href="#linearGradient5060"
       id="radialGradient3728"
       gradientUnits="userSpaceOnUse"
       gradientTransform="matrix(-4.7723729e-2,0,0,2.3250043e-2,35.239614,25.48098)"
       cx="605.71429"
       cy="486.64789"
       fx="605.71429"
       fy="486.64789"
       r="117.14286" />
    <linearGradient
       id="linearGradient5048">
      <stop
         id="stop5050"
         offset="0"
         style="stop-color:black;stop-opacity:0;" />
      <stop
         style="stop-color:black;stop-opacity:1;"
         offset="0.5"
         id="stop5056" />
      <stop
         id="stop5052"
         offset="1"
         style="stop-color:black;stop-opacity:0;" />
    </linearGradient>
    <linearGradient
       inkscape:collect="always"
       xlink:href="#linearGradient5048"
       id="linearGradient3731"
       gradientUnits="userSpaceOnUse"
       gradientTransform="matrix(4.7723729e-2,0,0,2.3250043e-2,0.751563,25.48098)"
       x1="302.85715"
       y1="366.64789"
       x2="302.85715"
       y2="609.50507" />
    <linearGradient
       inkscape:collect="always"
       xlink:href="#linearGradient2526"
       id="linearGradient2582"
       gradientUnits="userSpaceOnUse"
       gradientTransform="translate(0,0.785718)"
       x1="13.357142"
       y1="14.428571"
       x2="42.214283"
       y2="28.428572" />
    <linearGradient
       inkscape:collect="always"
       xlink:href="#linearGradient2563"
       id="linearGradient2569"
       x1="6.7857148"
       y1="30.785713"
       x2="42.214284"
       y2="30.785713"
       gradientUnits="userSpaceOnUse"
       gradientTransform="translate(0,0.785718)" />
    <radialGradient
       inkscape:collect="always"
       xlink:href="#linearGradient2551"
       id="radialGradient2557"
       cx="26.000000"
       cy="29.000000"
       fx="26.000000"
       fy="29.000000"
       r="18.428572"
       gradientTransform="matrix(1.000000,0.000000,0.000000,0.751938,1.196962e-16,7.193799)"
       gradientUnits="userSpaceOnUse" />
    <linearGradient
       inkscape:collect="always"
       xlink:href="#linearGradient2526"
       id="linearGradient2532"
       x1="13.357142"
       y1="14.428571"
       x2="42.214283"
       y2="28.428572"
       gradientUnits="userSpaceOnUse"
       gradientTransform="translate(0.000000,0.785718)" />
    <linearGradient
       id="linearGradient2526">
      <stop
         style="stop-color:#e7ebeb;stop-opacity:1.0000000;"
         offset="0.0000000"
         id="stop2528" />
      <stop
         id="stop2534"
         offset="0.50000000"
         style="stop-color:#e6ebeb;stop-opacity:1.0000000;" />
      <stop
         style="stop-color:#ffffff;stop-opacity:1.0000000;"
         offset="1.0000000"
         id="stop2530" />
    </linearGradient>
    <linearGradient
       inkscape:collect="always"
       id="linearGradient2551">
      <stop
         style="stop-color:#000000;stop-opacity:1;"
         offset="0"
         id="stop2553" />
      <stop
         style="stop-color:#000000;stop-opacity:0;"
         offset="1"
         id="stop2555" />
    </linearGradient>
    <linearGradient
       id="linearGradient2563">
      <stop
         style="stop-color:#e2e2e2;stop-opacity:1;"
         offset="0"
         id="stop2565" />
      <stop
         style="stop-color:#9f9f9f;stop-opacity:1.0000000;"
         offset="1.0000000"
         id="stop2583" />
    </linearGradient>
    <linearGradient
       y2="609.50507"
       x2="302.85715"
       y1="366.64789"
       x1="302.85715"
       gradientTransform="matrix(2.774389,0,0,1.969706,-1892.179,-872.8854)"
       gradientUnits="userSpaceOnUse"
       id="linearGradient6715"
       xlink:href="#linearGradient5048"
       inkscape:collect="always" />
    <linearGradient
       id="linearGradient2572">
      <stop
         id="stop2574"
         offset="0"
         style="stop-color:black;stop-opacity:0;" />
      <stop
         style="stop-color:black;stop-opacity:1;"
         offset="0.5"
         id="stop2576" />
      <stop
         id="stop2578"
         offset="1"
         style="stop-color:black;stop-opacity:0;" />
    </linearGradient>
    <radialGradient
       r="117.14286"
       fy="486.64789"
       fx="605.71429"
       cy="486.64789"
       cx="605.71429"
       gradientTransform="matrix(2.774389,0,0,1.969706,-1891.633,-872.8854)"
       gradientUnits="userSpaceOnUse"
       id="radialGradient6717"
       xlink:href="#linearGradient5060"
       inkscape:collect="always" />
    <radialGradient
       r="117.14286"
       fy="486.64789"
       fx="605.71429"
       cy="486.64789"
       cx="605.71429"
       gradientTransform="matrix(-2.774389,0,0,1.969706,112.7623,-872.8854)"
       gradientUnits="userSpaceOnUse"
       id="radialGradient6719"
       xlink:href="#linearGradient5060"
       inkscape:collect="always" />
    <inkscape:perspective
       id="perspective48"
       inkscape:persp3d-origin="24 : 16 : 1"
       inkscape:vp_z="48 : 24 : 1"
       inkscape:vp_y="0 : 1000 : 0"
       inkscape:vp_x="0 : 24 : 1"
       sodipodi:type="inkscape:persp3d" />
  </defs>
  <sodipodi:namedview
     id="base"
     pagecolor="#ffffff"
     bordercolor="#666666"
     borderopacity="1.0"
     inkscape:pageopacity="0.0"
     inkscape:pageshadow="2"
     inkscape:zoom="5.1458333"
     inkscape:cx="20.039439"
     inkscape:cy="18.050098"
     inkscape:current-layer="layer1"
     showgrid="true"
     inkscape:grid-bbox="true"
     inkscape:document-units="px"
     inkscape:window-width="641"
     inkscape:window-height="688"
     inkscape:window-x="610"
     inkscape:window-y="249">
    <inkscape:grid
       type="xygrid"
       id="grid7300" />
  </sodipodi:namedview>
  <metadata
     id="metadata7306">
    <rdf:RDF>
      <cc:Work
         rdf:about="">
        <dc:format>image/svg+xml</dc:format>
        <dc:type
           rdf:resource="http://purl.org/dc/dcmitype/StillImage" />
      </cc:Work>
    </rdf:RDF>
  </metadata>
  <g
     id="layer1"
     inkscape:label="Layer 1"
     inkscape:groupmode="layer">
    <rect
       y="34.005562"
       x="6.4784098"
       height="5.6464386"
       width="23.043743"
       id="rect4173"
       style="opacity:0.40206185;fill:url(#linearGradient3731);fill-opacity:1;fill-rule:nonzero;stroke:none;stroke-width:1;stroke-linecap:round;stroke-linejoin:round;marker:none;marker-start:none;marker-mid:none;marker-end:none;stroke-miterlimit:4;stroke-dasharray:none;stroke-dashoffset:0;stroke-opacity:1;visibility:visible;display:inline;overflow:visible" />
    <path
       style="opacity:0.40206185;fill:url(#radialGradient3728);fill-opacity:1;fill-rule:nonzero;stroke:none;stroke-width:1;stroke-linecap:round;stroke-linejoin:round;marker:none;marker-start:none;marker-mid:none;marker-end:none;stroke-miterlimit:4;stroke-dasharray:none;stroke-dashoffset:0;stroke-opacity:1;visibility:visible;display:inline;overflow:visible"
       d="M 6.4784108,34.005754 C 6.4784108,34.005754 6.4784108,39.65188 6.4784108,39.65188 C 4.0207568,39.66251 0.537,38.38687 0.537,36.828454 C 0.537,35.270039 3.279557,34.005754 6.4784108,34.005754 z"
       id="path5018"
       sodipodi:nodetypes="cccc" />
    <path
       sodipodi:nodetypes="cccc"
       id="path5058"
       d="M 29.522153,34.005754 C 29.522153,34.005754 29.522153,39.65188 29.522153,39.65188 C 31.979807,39.66251 35.463566,38.38687 35.463564,36.828454 C 35.463564,35.270039 32.721007,34.005754 29.522153,34.005754 z"
       style="opacity:0.40206185;fill:url(#radialGradient3768);fill-opacity:1;fill-rule:nonzero;stroke:none;stroke-width:1;stroke-linecap:round;stroke-linejoin:round;marker:none;marker-start:none;marker-mid:none;marker-end:none;stroke-miterlimit:4;stroke-dasharray:none;stroke-dashoffset:0;stroke-opacity:1;visibility:visible;display:inline;overflow:visible" />
    <path
       style="fill:url(#radialGradient3805);fill-opacity:1;fill-rule:nonzero;stroke:#333333;stroke-width:0.9997527;stroke-linecap:butt;stroke-linejoin:round;marker:none;marker-start:none;marker-mid:none;marker-end:none;stroke-miterlimit:4;stroke-dasharray:none;stroke-dashoffset:0;stroke-opacity:1;visibility:visible;display:block;overflow:visible"
       d="M 8.5001238,37.499718 C 6.9023508,37.499718 5.3045788,37.499718 3.7068058,37.499718 C 3.3184496,37.10898 3.6137599,36.333201 3.5214857,35.780033 C 3.5214857,25.416385 3.5214857,15.052739 3.5214857,4.6890922 L 3.5756451,4.5548892 L 3.7068058,4.4994722 L 3.7068058,4.4994722 C 5.3697608,4.4994722 6.7719848,4.4994722 8.4349408,4.4994722"
       id="path3385" />
    <path
       style="fill:url(#radialGradient8098);fill-opacity:1;fill-rule:nonzero;stroke:#333333;stroke-width:0.99979782;stroke-linecap:butt;stroke-linejoin:round;marker:none;marker-start:none;marker-mid:none;marker-end:none;stroke-miterlimit:4;stroke-dasharray:none;stroke-dashoffset:0;stroke-opacity:1;visibility:visible;display:block;overflow:visible"
       d="M 27.499899,4.4994942 C 29.112009,4.4994942 30.717225,4.4994942 32.310395,4.4994942 C 32.536556,4.4994942 32.497532,5.5354362 32.497532,6.2180262 C 32.497532,16.57472 32.497534,26.931414 32.497534,37.288106 C 32.111906,37.685207 31.34628,37.383246 30.800345,37.477602 C 29.713693,37.477602 28.627042,37.477602 27.540392,37.477602"
       id="rect15391"
       sodipodi:nodetypes="cccccc" />
    <rect
       style="fill:url(#linearGradient3799);fill-opacity:1;stroke:#333333;stroke-width:1.00002313;stroke-linecap:butt;stroke-linejoin:round;stroke-miterlimit:4;stroke-dasharray:none;stroke-dashoffset:0;stroke-opacity:1"
       id="rect3457"
       width="18.999977"
       height="32.999977"
       x="8.5000114"
       y="4.4996061"
       rx="0"
       ry="0" />
    <path
       style="fill:none;fill-rule:evenodd;stroke:#333333;stroke-width:1;stroke-linecap:square;stroke-linejoin:round;stroke-miterlimit:4;stroke-dasharray:none;stroke-opacity:1"
       d="M 9.4719328,21.499595 L 26.474908,21.499595"
       id="path3460" />
    <path
       style="opacity:0.36637932;fill:none;fill-opacity:1;fill-rule:nonzero;stroke:#ffffff;stroke-width:1.00014842;stroke-linecap:square;stroke-linejoin:round;marker:none;marker-start:none;marker-mid:none;marker-end:none;stroke-miterlimit:4;stroke-dasharray:none;stroke-dashoffset:0;stroke-opacity:1;visibility:visible;display:block;overflow:visible"
       d="M 9.5004308,5.4995962 C 15.166998,5.4995962 20.833566,5.4995962 26.500134,5.4995962"
       id="rect15660"
       sodipodi:nodetypes="cc" />
    <rect
       style="fill:#eeeeec;fill-opacity:1;stroke:none;stroke-width:1;stroke-linecap:butt;stroke-linejoin:round;stroke-miterlimit:4;stroke-dasharray:none;stroke-dashoffset:0;stroke-opacity:1"
       id="rect3464"
       width="2"
       height="1.5"
       x="5.0002813"
       y="6.4995947" />
    <rect
       style="fill:#eeeeec;fill-opacity:1;stroke:none;stroke-width:1;stroke-linecap:butt;stroke-linejoin:round;stroke-miterlimit:4;stroke-dasharray:none;stroke-dashoffset:0;stroke-opacity:1"
       id="rect3466"
       width="2"
       height="1.5"
       x="5.0002813"
       y="9.4995956" />
    <rect
       style="fill:#eeeeec;fill-opacity:1;stroke:none;stroke-width:1;stroke-linecap:butt;stroke-linejoin:round;stroke-miterlimit:4;stroke-dasharray:none;stroke-dashoffset:0;stroke-opacity:1"
       id="rect3468"
       width="2"
       height="1.5"
       x="5.0002813"
       y="12.499596" />
    <rect
       style="fill:#eeeeec;fill-opacity:1;stroke:none;stroke-width:1;stroke-linecap:butt;stroke-linejoin:round;stroke-miterlimit:4;stroke-dasharray:none;stroke-dashoffset:0;stroke-opacity:1"
       id="rect3470"
       width="2"
       height="1.5"
       x="5.0002813"
       y="15.499596" />
    <rect
       style="fill:#eeeeec;fill-opacity:1;stroke:none;stroke-width:1;stroke-linecap:butt;stroke-linejoin:round;stroke-miterlimit:4;stroke-dasharray:none;stroke-dashoffset:0;stroke-opacity:1"
       id="rect3472"
       width="2"
       height="1.5"
       x="5.0002813"
       y="18.499596" />
    <rect
       style="fill:#eeeeec;fill-opacity:1;stroke:none;stroke-width:1;stroke-linecap:butt;stroke-linejoin:round;stroke-miterlimit:4;stroke-dasharray:none;stroke-dashoffset:0;stroke-opacity:1"
       id="rect3474"
       width="2"
       height="1.5"
       x="5.0002813"
       y="21.499596" />
    <rect
       style="fill:#eeeeec;fill-opacity:1;stroke:none;stroke-width:1;stroke-linecap:butt;stroke-linejoin:round;stroke-miterlimit:4;stroke-dasharray:none;stroke-dashoffset:0;stroke-opacity:1"
       id="rect3476"
       width="2"
       height="1.5"
       x="5.0002813"
       y="24.499596" />
    <rect
       style="fill:#eeeeec;fill-opacity:1;stroke:none;stroke-width:1;stroke-linecap:butt;stroke-linejoin:round;stroke-miterlimit:4;stroke-dasharray:none;stroke-dashoffset:0;stroke-opacity:1"
       id="rect3478"
       width="2"
       height="1.5"
       x="5.0002813"
       y="27.499596" />
    <rect
       style="fill:#eeeeec;fill-opacity:1;stroke:none;stroke-width:1;stroke-linecap:butt;stroke-linejoin:round;stroke-miterlimit:4;stroke-dasharray:none;stroke-dashoffset:0;stroke-opacity:1"
       id="rect3480"
       width="2"
       height="1.5"
       x="5.0002813"
       y="30.499596" />
    <rect
       style="fill:#eeeeec;fill-opacity:1;stroke:none;stroke-width:1;stroke-linecap:butt;stroke-linejoin:round;stroke-miterlimit:4;stroke-dasharray:none;stroke-dashoffset:0;stroke-opacity:1"
       id="rect3482"
       width="2"
       height="1.5"
       x="5.0002813"
       y="33.499596" />
    <path
       style="opacity:0.36637932;fill:none;fill-opacity:1;fill-rule:nonzero;stroke:#ffffff;stroke-width:1.00014842;stroke-linecap:square;stroke-linejoin:round;marker:none;marker-start:none;marker-mid:none;marker-end:none;stroke-miterlimit:4;stroke-dasharray:none;stroke-dashoffset:0;stroke-opacity:1;visibility:visible;display:block;overflow:visible"
       d="M 9.5004308,22.499595 C 15.166998,22.499595 20.833566,22.499595 26.500134,22.499595"
       id="path3360"
       sodipodi:nodetypes="cc" />
    <g
       id="layer6"
       inkscape:label="Shadow"
       transform="matrix(0.6810817,0,0,0.6805403,-206.68213,-3.900291)" />
    <g
       style="display:inline"
       inkscape:label="Base"
       id="g2161"
       transform="matrix(0.6810817,0,0,0.6805403,-206.68213,-3.900291)" />
    <g
       id="layer5"
       inkscape:label="shadiw"
       transform="matrix(0.6810817,0,0,0.6805403,-242.819,-21.059992)" />
    <g
       id="g2482"
       inkscape:label="Shadow"
       transform="matrix(0.6810817,0,0,0.6805403,-217.57014,-3.709383)" />
    <g
       style="display:inline"
       inkscape:label="Base"
       id="g2484"
       transform="matrix(0.6810817,0,0,0.6805403,-217.57014,-3.709383)" />
    <g
       id="g2486"
       inkscape:label="shadiw"
       transform="matrix(0.6810817,0,0,0.6805403,-253.70701,-20.869084)" />
    <g
       id="g2309"
       inkscape:label="Shadow"
       transform="matrix(0.6810817,0,0,0.6805403,-205.75439,-1.31459)" />
    <g
       style="display:inline"
       inkscape:label="Base"
       id="g2311"
       transform="matrix(0.6810817,0,0,0.6805403,-205.75439,-1.31459)" />
    <g
       id="g2313"
       inkscape:label="shadiw"
       transform="matrix(0.6810817,0,0,0.6805403,-241.89126,-18.474292)" />
    <g
       id="g2511"
       inkscape:label="Shadow"
       transform="matrix(0.6810817,0,0,0.6805403,-290.85088,3.193881)" />
    <g
       style="display:inline"
       inkscape:label="Base"
       id="g2513"
       transform="matrix(0.6810817,0,0,0.6805403,-290.85088,3.193881)" />
    <g
       id="g2515"
       inkscape:label="shadiw"
       transform="matrix(0.6810817,0,0,0.6805403,-326.98775,-13.965821)" />
    <g
       id="g2797"
       inkscape:label="Shadow"
       transform="matrix(0.6810817,0,0,0.6805403,-130.95994,1.798472)" />
    <g
       style="display:inline"
       inkscape:label="Base"
       id="g2170"
       transform="matrix(0.6810817,0,0,0.6805403,-130.95994,1.798472)" />
    <g
       inkscape:label="Layer 1"
       id="g5398"
       transform="matrix(0.6810817,0,0,0.6805403,-218.49949,21.212244)" />
    <g
       id="g2801"
       inkscape:label="shadiw"
       transform="matrix(0.6810817,0,0,0.6805403,-218.49949,21.212244)" />
    <g
       id="layer4"
       inkscape:label="white"
       transform="matrix(0.6810817,0,0,0.6805403,-218.49949,21.212244)" />
    <g
       transform="matrix(0.6810817,0,0,0.6805403,-272.30332,15.526436)"
       style="display:inline"
       id="g3678"
       inkscape:label="Layer 1" />
    <g
       transform="matrix(0.6810817,0,0,0.6805403,-272.30332,15.526436)"
       inkscape:label="bottom"
       id="g3680" />
    <g
       transform="matrix(0.6810817,0,0,0.6805403,-272.30332,15.526436)"
       style="display:inline"
       inkscape:label="back"
       id="layer2" />
    <g
       id="g3698"
       inkscape:label="shadiw"
       transform="matrix(0.6810817,0,0,0.6805403,-165.6975,21.58842)" />
    <g
       id="g3760"
       inkscape:label="shadiw"
       transform="matrix(0.6810817,0,0,0.6805403,-51.051895,25.168246)" />
    <g
       transform="matrix(0.6810817,0,0,0.6805403,-292.28393,-2.198321)"
       inkscape:label="Shadow"
       id="g5431" />
    <g
       transform="matrix(0.6810817,0,0,0.6805403,-292.28393,-2.198321)"
       id="g4258"
       inkscape:label="Base"
       style="display:inline" />
    <g
       transform="matrix(0.6810817,0,0,0.6805403,-292.28393,-2.198321)"
       inkscape:label="new"
       id="g5440" />
    <g
       transform="matrix(0.6810817,0,0,0.6805403,-270.87269,7.493321)"
       style="display:inline"
       id="g3928"
       inkscape:label="Layer 1" />
    <g
       transform="matrix(0.6810817,0,0,0.6805403,-270.87269,7.493321)"
       inkscape:label="bottom"
       id="g3930" />
    <g
       transform="matrix(0.6810817,0,0,0.6805403,-270.87269,7.493321)"
       style="display:inline"
       inkscape:label="back"
       id="g3932" />
    <g
       id="g3934"
       inkscape:label="shadiw"
       transform="matrix(0.6810817,0,0,0.6805403,-164.26687,13.555305)" />
    <g
       id="g3936"
       inkscape:label="shadiw"
       transform="matrix(0.6810817,0,0,0.6805403,-49.62127,17.135131)" />
    <g
       transform="matrix(0.6810817,0,0,0.6805403,-290.8533,-10.231438)"
       inkscape:label="Shadow"
       id="g3961" />
    <g
       transform="matrix(0.6810817,0,0,0.6805403,-290.8533,-10.231438)"
       id="g3963"
       inkscape:label="Base"
       style="display:inline" />
    <g
       transform="matrix(0.6810817,0,0,0.6805403,-290.8533,-10.231438)"
       inkscape:label="new"
       id="layer7" />
    <g
       id="g2561"
       inkscape:label="Shadow"
       transform="matrix(0.6810817,0,0,0.6805403,-320.40429,26.000123)" />
    <g
       style="display:inline"
       inkscape:label="Base"
       id="g2855"
       transform="matrix(0.6810817,0,0,0.6805403,-320.40429,26.000123)" />
    <g
       id="g2564"
       inkscape:label="shadiw"
       transform="matrix(0.6810817,0,0,0.6805403,-356.54116,8.840422)" />
    <g
       id="g2790"
       inkscape:label="Shadow"
       transform="matrix(0.6810817,0,0,0.6805403,-125.56985,20.207743)" />
    <g
       style="display:inline"
       inkscape:label="Base"
       id="g2792"
       transform="matrix(0.6810817,0,0,0.6805403,-125.56985,20.207743)" />
    <g
       inkscape:label="Layer 1"
       id="g2794"
       transform="matrix(0.6810817,0,0,0.6805403,-213.10941,39.62152)" />
    <g
       id="g2796"
       inkscape:label="shadiw"
       transform="matrix(0.6810817,0,0,0.6805403,-213.10941,39.62152)" />
    <g
       id="g2798"
       inkscape:label="white"
       transform="matrix(0.6810817,0,0,0.6805403,-213.10941,39.62152)" />
    <g
       transform="matrix(0.6810817,0,0,0.6805403,-266.91323,33.935708)"
       style="display:inline"
       id="g2800"
       inkscape:label="Layer 1" />
    <g
       transform="matrix(0.6810817,0,0,0.6805403,-266.91323,33.935708)"
       inkscape:label="bottom"
       id="g2802" />
    <g
       transform="matrix(0.6810817,0,0,0.6805403,-266.91323,33.935708)"
       style="display:inline"
       inkscape:label="back"
       id="g2804" />
    <g
       id="g2806"
       inkscape:label="shadiw"
       transform="matrix(0.6810817,0,0,0.6805403,-160.30741,39.997695)" />
    <g
       id="g2808"
       inkscape:label="shadiw"
       transform="matrix(0.6810817,0,0,0.6805403,-45.661808,43.577522)" />
    <g
       transform="matrix(0.6810817,0,0,0.6805403,-286.89385,16.210952)"
       inkscape:label="Shadow"
       id="g2810" />
    <g
       transform="matrix(0.6810817,0,0,0.6805403,-286.89385,16.210952)"
       id="g2812"
       inkscape:label="Base"
       style="display:inline" />
    <g
       transform="matrix(0.6810817,0,0,0.6805403,-286.89385,16.210952)"
       inkscape:label="new"
       id="g2814" />
    <g
       transform="matrix(0.6810817,0,0,0.6805403,-265.4826,25.902592)"
       style="display:inline"
       id="g2816"
       inkscape:label="Layer 1" />
    <g
       transform="matrix(0.6810817,0,0,0.6805403,-265.4826,25.902592)"
       inkscape:label="bottom"
       id="g2818" />
    <g
       transform="matrix(0.6810817,0,0,0.6805403,-265.4826,25.902592)"
       style="display:inline"
       inkscape:label="back"
       id="g2820" />
    <g
       id="g2823"
       inkscape:label="shadiw"
       transform="matrix(0.6810817,0,0,0.6805403,-158.87678,31.964578)" />
    <g
       id="g2825"
       inkscape:label="shadiw"
       transform="matrix(0.6810817,0,0,0.6805403,-44.231183,35.544404)" />
    <g
       transform="matrix(0.6810817,0,0,0.6805403,-285.46322,8.177836)"
       inkscape:label="Shadow"
       id="g2827" />
    <g
       transform="matrix(0.6810817,0,0,0.6805403,-285.46322,8.177836)"
       id="g2829"
       inkscape:label="Base"
       style="display:inline" />
    <g
       transform="matrix(0.6810817,0,0,0.6805403,-285.46322,8.177836)"
       inkscape:label="new"
       id="g2831" />
    <g
       id="g7422"
       transform="translate(-67.112864,20.106681)" />
    <rect
       style="fill:#eeeeec;fill-opacity:1;stroke:none;stroke-width:1;stroke-linecap:butt;stroke-linejoin:round;stroke-miterlimit:4;stroke-dasharray:none;stroke-dashoffset:0;stroke-opacity:1"
       id="rect8142"
       width="2"
       height="1.5"
       x="29"
       y="6.4995947" />
    <rect
       style="fill:#eeeeec;fill-opacity:1;stroke:none;stroke-width:1;stroke-linecap:butt;stroke-linejoin:round;stroke-miterlimit:4;stroke-dasharray:none;stroke-dashoffset:0;stroke-opacity:1"
       id="rect8144"
       width="2"
       height="1.5"
       x="29"
       y="9.4995956" />
    <rect
       style="fill:#eeeeec;fill-opacity:1;stroke:none;stroke-width:1;stroke-linecap:butt;stroke-linejoin:round;stroke-miterlimit:4;stroke-dasharray:none;stroke-dashoffset:0;stroke-opacity:1"
       id="rect8146"
       width="2"
       height="1.5"
       x="29"
       y="12.499596" />
    <g
       id="g2596"
       inkscape:label="Layer 1"
       transform="matrix(0.7871269,0,0,0.7871269,11.868013,11.804496)">
      <g
         id="g6707"
         transform="matrix(2.294847e-2,0,0,2.276812e-2,44.75587,36.74254)">
        <rect
           y="-150.69685"
           x="-1559.2523"
           height="478.35718"
           width="1339.6335"
           id="rect6709"
           style="opacity:0.40206185;fill:url(#linearGradient6715);fill-opacity:1;fill-rule:nonzero;stroke:none;stroke-width:1;stroke-linecap:round;stroke-linejoin:miter;marker:none;marker-start:none;marker-mid:none;marker-end:none;stroke-miterlimit:4;stroke-dasharray:none;stroke-dashoffset:0;stroke-opacity:1;visibility:visible;display:inline;overflow:visible" />
        <path
           sodipodi:nodetypes="cccc"
           id="path6711"
           d="M -219.61876,-150.68038 C -219.61876,-150.68038 -219.61876,327.65041 -219.61876,327.65041 C -76.744594,328.55086 125.78146,220.48075 125.78138,88.454235 C 125.78138,-43.572302 -33.655436,-150.68036 -219.61876,-150.68038 z"
           style="opacity:0.40206185;fill:url(#radialGradient6717);fill-opacity:1;fill-rule:nonzero;stroke:none;stroke-width:1;stroke-linecap:round;stroke-linejoin:miter;marker:none;marker-start:none;marker-mid:none;marker-end:none;stroke-miterlimit:4;stroke-dasharray:none;stroke-dashoffset:0;stroke-opacity:1;visibility:visible;display:inline;overflow:visible" />
        <path
           style="opacity:0.40206185;fill:url(#radialGradient6719);fill-opacity:1;fill-rule:nonzero;stroke:none;stroke-width:1;stroke-linecap:round;stroke-linejoin:miter;marker:none;marker-start:none;marker-mid:none;marker-end:none;stroke-miterlimit:4;stroke-dasharray:none;stroke-dashoffset:0;stroke-opacity:1;visibility:visible;display:inline;overflow:visible"
           d="M -1559.2523,-150.68038 C -1559.2523,-150.68038 -1559.2523,327.65041 -1559.2523,327.65041 C -1702.1265,328.55086 -1904.6525,220.48075 -1904.6525,88.454235 C -1904.6525,-43.572302 -1745.2157,-150.68036 -1559.2523,-150.68038 z"
           id="path6713"
           sodipodi:nodetypes="cccc" />
      </g>
      <path
         style="fill:#a7a7a7;fill-opacity:1;fill-rule:evenodd;stroke:#656565;stroke-width:1px;stroke-linecap:butt;stroke-linejoin:miter;stroke-opacity:1"
         d="M 4.857143,38.428571 C 4.6428572,39.428571 5.4642859,40.464285 6.8214287,40.428571 L 43,40.428571 C 44.285714,40.392857 44.714286,39.214285 44.428572,38.249999 L 36.571429,9.4285713 L 10.571429,9.4285713 L 4.857143,38.428571 z"
         id="path1316"
         sodipodi:nodetypes="ccccccc" />
      <path
         style="opacity:0.10857143;fill:#000000;fill-opacity:1;fill-rule:evenodd;stroke:#000000;stroke-width:0.99999958;stroke-linecap:butt;stroke-linejoin:miter;marker:none;marker-start:none;marker-mid:none;marker-end:none;stroke-miterlimit:4;stroke-dasharray:none;stroke-dashoffset:0;stroke-opacity:1;visibility:visible;display:inline;overflow:visible;font-family:Bitstream Vera Sans"
         d="M 9.162504,30.806458 L 39.395095,30.806458 C 40.252297,30.806458 40.942392,31.478744 40.942392,32.313825 L 42.26958,37.11476 C 42.26958,37.949841 41.579486,38.622127 40.722283,38.622127 L 8.2777114,38.622127 C 7.4205088,38.622127 6.7304142,37.949841 6.7304142,37.11476 L 7.6152068,32.313825 C 7.6152068,31.478744 8.3053014,30.806458 9.162504,30.806458 z"
         id="path2575"
         sodipodi:nodetypes="ccccccccc" />
      <path
         sodipodi:nodetypes="ccccccc"
         id="path2520"
         d="M 6.0478436,37.805569 C 5.8479823,38.738255 5.6491963,39.385227 6.5227626,39.385227 L 42.837439,39.385227 C 43.753496,39.385227 43.579187,38.645537 43.312705,37.746161 L 35.770172,10.471961 L 11.520336,10.471961 L 6.0478436,37.805569 z"
         style="fill:none;fill-opacity:1;fill-rule:evenodd;stroke:#ffffff;stroke-width:0.9999997px;stroke-linecap:butt;stroke-linejoin:miter;stroke-opacity:0.3446328" />
      <path
         sodipodi:nodetypes="ccccccccc"
         id="path2518"
         d="M 9.6418018,29.928574 L 38.929626,29.928574 C 39.760041,29.928574 40.42857,30.579851 40.42857,31.388835 L 41.714284,36.039742 C 41.714284,36.848726 41.045755,37.500003 40.21534,37.500003 L 8.7846589,37.500003 C 7.9542438,37.500003 7.2857146,36.848726 7.2857146,36.039742 L 8.1428575,31.388835 C 8.1428575,30.579851 8.8113867,29.928574 9.6418018,29.928574 z"
         style="opacity:1;fill:#c5c5c5;fill-opacity:1;fill-rule:evenodd;stroke:#696969;stroke-width:0.99999964;stroke-linecap:butt;stroke-linejoin:miter;marker:none;marker-start:none;marker-mid:none;marker-end:none;stroke-miterlimit:4;stroke-dasharray:none;stroke-dashoffset:0;stroke-opacity:1;visibility:visible;display:inline;overflow:visible;font-family:Bitstream Vera Sans" />
      <path
         style="fill:url(#linearGradient2569);fill-opacity:1;fill-rule:evenodd;stroke:#696969;stroke-width:0.99999964;stroke-linecap:butt;stroke-linejoin:miter;marker:none;marker-start:none;marker-mid:none;marker-end:none;stroke-miterlimit:4;stroke-dashoffset:0;stroke-opacity:1;visibility:visible;display:inline;overflow:visible"
         d="M 9.6418018,27.785717 L 38.929626,27.785717 C 39.760041,27.785717 40.42857,28.436994 40.42857,29.245978 L 41.714284,33.896885 C 41.714284,34.705869 41.045755,35.357146 40.21534,35.357146 L 8.7846589,35.357146 C 7.9542438,35.357146 7.2857146,34.705869 7.2857146,33.896885 L 8.1428575,29.245978 C 8.1428575,28.436994 8.8113867,27.785717 9.6418018,27.785717 z"
         id="rect2225"
         sodipodi:nodetypes="ccccccccc" />
      <g
         id="g2578"
         transform="matrix(0.942549,0,0,0.942549,-0.222619,1.85586)">
        <path
           sodipodi:nodetypes="cczczcc"
           id="path2524"
           d="M 10.891973,11.500004 L 6.5714281,33.21429 C 6.5714281,33.21429 32.857143,33.214291 32.857143,33.214291 C 45.441975,33.214291 48.085306,29.21429 48.085306,29.21429 C 48.085306,29.21429 44.728164,28.035719 43.299593,23.071433 C 43.299593,23.071433 40.23864,11.500004 40.23864,11.500004 L 10.891973,11.500004 z"
           style="fill:url(#linearGradient2582);fill-opacity:1;fill-rule:evenodd;stroke:#696969;stroke-width:1.06095243px;stroke-linecap:butt;stroke-linejoin:miter;stroke-opacity:1" />
        <path
           style="fill:none;fill-opacity:1;fill-rule:evenodd;stroke:#ffffff;stroke-width:1.06095195px;stroke-linecap:butt;stroke-linejoin:miter;stroke-opacity:1"
           d="M 11.803734,12.474609 L 7.8122567,32.239668 C 7.8122567,32.239668 24.956518,32.239669 32.238382,32.239669 C 43.465021,32.239669 46.348811,29.388804 46.348811,29.388804 C 46.348811,29.388804 43.355751,27.525962 42.055419,23.007305 C 42.055419,23.007305 39.316856,12.546038 39.316856,12.546038 L 11.803734,12.474609 z"
           id="path2571"
           sodipodi:nodetypes="cccczcc" />
      </g>
      <path
         style="fill:#9b9b9b;fill-opacity:1;fill-rule:evenodd;stroke:#696969;stroke-width:0.99999952;stroke-linecap:butt;stroke-linejoin:miter;marker:none;marker-start:none;marker-mid:none;marker-end:none;stroke-miterlimit:4;stroke-dashoffset:0;stroke-opacity:1;visibility:visible;display:inline;overflow:visible"
         d="M 11.315699,7.4285707 L 36.494515,7.4285707 C 37.367632,7.4285707 38.070539,8.0973414 38.070539,8.9280566 L 38.427682,11.071942 C 38.427682,11.902657 37.724775,12.571428 36.851658,12.571428 L 10.958556,12.571428 C 10.085439,12.571428 9.3825323,11.902657 9.3825323,11.071942 L 9.7396752,8.9280566 C 9.7396752,8.0973414 10.442582,7.4285707 11.315699,7.4285707 z"
         id="rect2522"
         sodipodi:nodetypes="ccccccccc" />
      <path
         style="font-size:17.57787704px;font-style:normal;font-variant:normal;font-weight:bold;font-stretch:normal;line-height:100%;writing-mode:lr-tb;text-anchor:start;fill:#000000;fill-opacity:1;stroke:none;stroke-width:1px;stroke-linecap:butt;stroke-linejoin:miter;stroke-opacity:1;font-family:Segoe"
         d="M 20.969159,22.39302 C 21.957574,22.486777 22.691543,22.765423 23.171063,23.228961 C 23.651181,23.687301 23.849054,24.273239 23.76468,24.986779 C 23.64087,26.033659 23.075908,26.877412 22.069796,27.518037 C 21.063667,28.158665 19.762256,28.478977 18.165559,28.478978 C 16.939741,28.478977 15.906445,28.286269 15.065668,27.900851 L 15.30588,25.869594 C 16.189321,26.478973 17.193659,26.783661 18.318897,26.78366 C 19.217824,26.783661 19.926554,26.637828 20.445092,26.346159 C 20.964233,26.049284 21.255527,25.632617 21.318975,25.096154 C 21.385488,24.533656 21.176411,24.122197 20.691744,23.861775 C 20.207063,23.601362 19.398966,23.471154 18.26745,23.471149 L 16.994488,23.471149 L 17.20144,21.721144 L 18.559266,21.721144 C 19.451905,21.72115 20.149975,21.585733 20.653477,21.314892 C 21.157582,21.038857 21.439509,20.648231 21.499262,20.143013 C 21.555304,19.669062 21.408536,19.288853 21.05896,19.002385 C 20.709369,18.715935 20.154261,18.572705 19.393634,18.572696 C 18.431836,18.572705 17.490216,18.853956 16.568772,19.416448 L 16.798822,17.47113 C 17.831208,17.033639 18.988597,16.814889 20.270993,16.814878 C 21.509374,16.814889 22.459536,17.072702 23.121484,17.588317 C 23.7897,18.103954 24.076386,18.76281 23.981543,19.564886 C 23.893455,20.309689 23.59823,20.919065 23.095869,21.393017 C 22.594104,21.861775 21.885201,22.195109 20.969159,22.39302"
         id="text2541" />
      <path
         style="font-size:17.57787704px;font-style:normal;font-variant:normal;font-weight:bold;font-stretch:normal;line-height:100%;writing-mode:lr-tb;text-anchor:start;fill:#000000;fill-opacity:1;stroke:none;stroke-width:1px;stroke-linecap:butt;stroke-linejoin:miter;stroke-opacity:1;font-family:Segoe"
         d="M 33.007379,28.45554 L 30.499173,28.45554 L 29.387875,19.096134 L 26.295373,19.893012 L 26.086657,18.135194 L 31.627997,16.838314 L 33.007379,28.45554"
         id="text2545" />
      <path
         sodipodi:type="arc"
         style="opacity:0.52571429;fill:#fefefe;fill-opacity:1;fill-rule:evenodd;stroke:none;stroke-width:0.99999964;stroke-linecap:butt;stroke-linejoin:miter;marker:none;marker-start:none;marker-mid:none;marker-end:none;stroke-miterlimit:4;stroke-dasharray:none;stroke-dashoffset:0;stroke-opacity:1;visibility:visible;display:inline;overflow:visible"
         id="path2559"
         sodipodi:cx="11.5"
         sodipodi:cy="9.9285717"
         sodipodi:rx="1.3571428"
         sodipodi:ry="1.3571428"
         d="M 12.857143,9.9285717 A 1.3571428,1.3571428 0 1 1 10.142857,9.9285717 A 1.3571428,1.3571428 0 1 1 12.857143,9.9285717 z"
         transform="matrix(0.684211,0,0,0.684211,3.560154,2.278197)" />
      <path
         style="opacity:0.3028571;fill:none;fill-opacity:0.75;fill-rule:evenodd;stroke:#ffffff;stroke-width:1.00000012px;stroke-linecap:round;stroke-linejoin:miter;stroke-opacity:1"
         d="M 13.042053,8.6010151 L 36.371309,8.6010151"
         id="path2561"
         sodipodi:nodetypes="cc" />
    </g>
  </g>
</svg>
